<svg xmlns="http://www.w3.org/2000/svg" xmlns:xlink="http://www.w3.org/1999/xlink" width="500" zoomAndPan="magnify" viewBox="0 0 375 374.999991" height="500" preserveAspectRatio="xMidYMid meet" version="1.0"><defs><g/><clipPath id="39078b055a"><path d="M 41 163 L 125.484375 163 L 125.484375 198 L 41 198 Z M 41 163 " clip-rule="nonzero"/></clipPath><clipPath id="0a8640abb8"><path d="M 5.484375 127.3125 L 107 127.3125 L 107 244 L 5.484375 244 Z M 5.484375 127.3125 " clip-rule="nonzero"/></clipPath><clipPath id="d45c67b798"><path d="M 30 206 L 85 206 L 85 247.3125 L 30 247.3125 Z M 30 206 " clip-rule="nonzero"/></clipPath></defs><path fill="#ffde59" d="M 63.550781 163.578125 C 51.550781 163.578125 41.789062 173.339844 41.789062 185.339844 C 41.789062 197.339844 51.550781 207.101562 63.550781 207.101562 C 70.921875 207.101562 77.445312 203.414062 81.382812 197.789062 L 63.550781 197.789062 L 63.550781 188.988281 C 63.550781 184.308594 67.34375 180.515625 72.023438 180.515625 L 102.585938 180.515625 L 102.585938 228.265625 C 114.253906 217.652344 121.582031 202.355469 121.582031 185.339844 C 121.582031 177.644531 120.078125 170.300781 117.355469 163.578125 Z M 63.550781 163.578125 " fill-opacity="1" fill-rule="nonzero"/><g clip-path="url(#39078b055a)"><path fill="#0cc0df" d="M 63.550781 163.578125 C 51.550781 163.578125 41.789062 173.339844 41.789062 185.339844 C 41.789062 189.644531 43.050781 193.65625 45.214844 197.035156 C 44.808594 195.378906 44.59375 193.652344 44.59375 191.875 C 44.59375 179.875 54.355469 170.113281 66.351562 170.113281 L 119.558594 170.113281 L 125.445312 163.578125 Z M 63.550781 163.578125 " fill-opacity="1" fill-rule="nonzero"/></g><g clip-path="url(#0a8640abb8)"><path fill="#38b6ff" d="M 84.378906 218.328125 C 78.347656 222.152344 71.207031 224.375 63.550781 224.375 C 42.027344 224.375 24.515625 206.863281 24.515625 185.339844 C 24.515625 163.816406 42.027344 146.304688 63.550781 146.304688 L 106.484375 146.304688 C 95.871094 134.636719 80.566406 127.3125 63.550781 127.3125 C 31.503906 127.3125 5.523438 153.292969 5.523438 185.339844 C 5.523438 217.390625 31.503906 243.371094 63.550781 243.371094 C 70.890625 243.371094 77.914062 242.003906 84.378906 239.515625 Z M 84.378906 218.328125 " fill-opacity="1" fill-rule="nonzero"/></g><g clip-path="url(#d45c67b798)"><path fill="#ffde59" d="M 84.378906 218.328125 C 78.347656 222.152344 71.207031 224.375 63.550781 224.375 C 49.816406 224.375 37.726562 217.238281 30.765625 206.488281 C 36.890625 220.046875 50.53125 229.511719 66.351562 229.511719 C 70.339844 229.511719 74.1875 228.902344 77.8125 227.785156 C 77.8125 233.671875 77.8125 240.355469 77.8125 241.601562 C 79.523438 243.417969 82.171875 245.285156 84.378906 247.308594 C 84.378906 246.398438 84.378906 243.8125 84.378906 240.539062 C 84.378906 235.832031 84.378906 229.703125 84.378906 225.078125 Z M 84.378906 218.328125 " fill-opacity="1" fill-rule="nonzero"/></g><g fill="#38b6ff" fill-opacity="1"><g transform="translate(129.086891, 206.970279)"><g><path d="M 30.625 -17.5625 L 30.625 -10.75 C 29.8125 -7.03125 28.035156 -4.210938 25.296875 -2.296875 C 22.566406 -0.390625 19.519531 0.5625 16.15625 0.5625 C 11.914062 0.5625 8.304688 -1.019531 5.328125 -4.1875 C 2.359375 -7.351562 0.875 -11.175781 0.875 -15.65625 C 0.875 -20.21875 2.328125 -24.066406 5.234375 -27.203125 C 8.148438 -30.347656 11.789062 -31.921875 16.15625 -31.921875 C 21.238281 -31.921875 25.265625 -30.132812 28.234375 -26.5625 L 23.5625 -21.4375 C 21.882812 -24.113281 19.550781 -25.453125 16.5625 -25.453125 C 14.363281 -25.453125 12.484375 -24.492188 10.921875 -22.578125 C 9.367188 -20.671875 8.59375 -18.363281 8.59375 -15.65625 C 8.59375 -13 9.367188 -10.722656 10.921875 -8.828125 C 12.484375 -6.941406 14.363281 -6 16.5625 -6 C 18.382812 -6 19.972656 -6.550781 21.328125 -7.65625 C 22.691406 -8.757812 23.375 -10.222656 23.375 -12.046875 L 16.15625 -12.046875 L 16.15625 -17.5625 Z M 30.625 -17.5625 "/></g></g></g><g fill="#38b6ff" fill-opacity="1"><g transform="translate(160.58246, 206.970279)"><g><path d="M 0.875 -15.6875 C 0.875 -20.226562 2.414062 -24.066406 5.5 -27.203125 C 8.59375 -30.347656 12.320312 -31.921875 16.6875 -31.921875 C 21.0625 -31.921875 24.78125 -30.351562 27.84375 -27.21875 C 30.914062 -24.09375 32.453125 -20.25 32.453125 -15.6875 C 32.453125 -11.101562 30.941406 -7.25 27.921875 -4.125 C 24.910156 -1 21.164062 0.5625 16.6875 0.5625 C 12.09375 0.5625 8.304688 -0.984375 5.328125 -4.078125 C 2.359375 -7.179688 0.875 -11.050781 0.875 -15.6875 Z M 8.59375 -15.6875 C 8.59375 -14.039062 8.84375 -12.539062 9.34375 -11.1875 C 9.851562 -9.832031 10.738281 -8.6875 12 -7.75 C 13.269531 -6.8125 14.832031 -6.34375 16.6875 -6.34375 C 19.34375 -6.34375 21.347656 -7.253906 22.703125 -9.078125 C 24.054688 -10.898438 24.734375 -13.101562 24.734375 -15.6875 C 24.734375 -18.25 24.039062 -20.445312 22.65625 -22.28125 C 21.28125 -24.125 19.289062 -25.046875 16.6875 -25.046875 C 14.101562 -25.046875 12.109375 -24.125 10.703125 -22.28125 C 9.296875 -20.445312 8.59375 -18.25 8.59375 -15.6875 Z M 8.59375 -15.6875 "/></g></g></g><g fill="#38b6ff" fill-opacity="1"><g transform="translate(193.901656, 206.970279)"><g><path d="M 0.875 -15.6875 C 0.875 -20.226562 2.414062 -24.066406 5.5 -27.203125 C 8.59375 -30.347656 12.320312 -31.921875 16.6875 -31.921875 C 21.0625 -31.921875 24.78125 -30.351562 27.84375 -27.21875 C 30.914062 -24.09375 32.453125 -20.25 32.453125 -15.6875 C 32.453125 -11.101562 30.941406 -7.25 27.921875 -4.125 C 24.910156 -1 21.164062 0.5625 16.6875 0.5625 C 12.09375 0.5625 8.304688 -0.984375 5.328125 -4.078125 C 2.359375 -7.179688 0.875 -11.050781 0.875 -15.6875 Z M 8.59375 -15.6875 C 8.59375 -14.039062 8.84375 -12.539062 9.34375 -11.1875 C 9.851562 -9.832031 10.738281 -8.6875 12 -7.75 C 13.269531 -6.8125 14.832031 -6.34375 16.6875 -6.34375 C 19.34375 -6.34375 21.347656 -7.253906 22.703125 -9.078125 C 24.054688 -10.898438 24.734375 -13.101562 24.734375 -15.6875 C 24.734375 -18.25 24.039062 -20.445312 22.65625 -22.28125 C 21.28125 -24.125 19.289062 -25.046875 16.6875 -25.046875 C 14.101562 -25.046875 12.109375 -24.125 10.703125 -22.28125 C 9.296875 -20.445312 8.59375 -18.25 8.59375 -15.6875 Z M 8.59375 -15.6875 "/></g></g></g><g fill="#38b6ff" fill-opacity="1"><g transform="translate(227.220852, 206.970279)"><g><path d="M 2.28125 -31.34375 L 11.359375 -31.34375 C 15.710938 -31.34375 19.4375 -29.851562 22.53125 -26.875 C 25.625 -23.90625 27.171875 -20.175781 27.171875 -15.6875 C 27.171875 -11.1875 25.628906 -7.445312 22.546875 -4.46875 C 19.472656 -1.488281 15.742188 0 11.359375 0 L 2.28125 0 Z M 9.421875 -6.390625 L 10.53125 -6.390625 C 13.132812 -6.390625 15.265625 -7.269531 16.921875 -9.03125 C 18.585938 -10.789062 19.429688 -13 19.453125 -15.65625 C 19.453125 -18.3125 18.625 -20.523438 16.96875 -22.296875 C 15.3125 -24.078125 13.164062 -24.96875 10.53125 -24.96875 L 9.421875 -24.96875 Z M 9.421875 -6.390625 "/></g></g></g><g fill="#38b6ff" fill-opacity="1"><g transform="translate(255.259127, 206.970279)"><g><path d="M 26.328125 0 L 21.3125 -17.59375 L 16.296875 0 L 8.359375 0 L -0.5625 -31.34375 L 7.375 -31.34375 L 12.734375 -9.84375 L 12.921875 -9.84375 L 18.625 -31.34375 L 24.015625 -31.34375 L 29.71875 -9.84375 L 29.90625 -9.84375 L 35.265625 -31.34375 L 43.171875 -31.34375 L 34.234375 0 Z M 26.328125 0 "/></g></g></g><g fill="#38b6ff" fill-opacity="1"><g transform="translate(297.848426, 206.970279)"><g><path d="M 9.421875 -31.34375 L 9.421875 0 L 2.28125 0 L 2.28125 -31.34375 Z M 9.421875 -31.34375 "/></g></g></g><g fill="#38b6ff" fill-opacity="1"><g transform="translate(309.550032, 206.970279)"><g><path d="M 9.421875 -31.34375 L 9.421875 -6.265625 L 20.21875 -6.265625 L 20.21875 0 L 2.28125 0 L 2.28125 -31.34375 Z M 9.421875 -31.34375 "/></g></g></g><g fill="#38b6ff" fill-opacity="1"><g transform="translate(331.015634, 206.970279)"><g><path d="M 9.421875 -31.34375 L 9.421875 -6.265625 L 20.21875 -6.265625 L 20.21875 0 L 2.28125 0 L 2.28125 -31.34375 Z M 9.421875 -31.34375 "/></g></g></g><g fill="#ffde59" fill-opacity="1"><g transform="translate(129.145484, 227.545269)"><g><path d="M 6.140625 -6.8125 L 10.953125 -6.8125 L 10.953125 -0.515625 C 10.171875 -0.265625 9.4375 -0.0859375 8.75 0.015625 C 8.0625 0.117188 7.351562 0.171875 6.625 0.171875 C 4.800781 0.171875 3.40625 -0.363281 2.4375 -1.4375 C 1.46875 -2.519531 0.984375 -4.066406 0.984375 -6.078125 C 0.984375 -8.035156 1.539062 -9.5625 2.65625 -10.65625 C 3.78125 -11.757812 5.335938 -12.3125 7.328125 -12.3125 C 8.578125 -12.3125 9.78125 -12.0625 10.9375 -11.5625 L 10.078125 -9.5 C 9.191406 -9.945312 8.269531 -10.171875 7.3125 -10.171875 C 6.195312 -10.171875 5.304688 -9.796875 4.640625 -9.046875 C 3.972656 -8.296875 3.640625 -7.289062 3.640625 -6.03125 C 3.640625 -4.71875 3.90625 -3.710938 4.4375 -3.015625 C 4.976562 -2.316406 5.765625 -1.96875 6.796875 -1.96875 C 7.335938 -1.96875 7.882812 -2.023438 8.4375 -2.140625 L 8.4375 -4.671875 L 6.140625 -4.671875 Z M 6.140625 -6.8125 "/></g></g></g><g fill="#ffde59" fill-opacity="1"><g transform="translate(141.449885, 227.545269)"><g><path d="M 3.34375 -4.65625 C 3.34375 -3.738281 3.492188 -3.046875 3.796875 -2.578125 C 4.097656 -2.109375 4.585938 -1.875 5.265625 -1.875 C 5.941406 -1.875 6.425781 -2.101562 6.71875 -2.5625 C 7.019531 -3.03125 7.171875 -3.726562 7.171875 -4.65625 C 7.171875 -5.570312 7.019531 -6.257812 6.71875 -6.71875 C 6.425781 -7.175781 5.9375 -7.40625 5.25 -7.40625 C 4.570312 -7.40625 4.082031 -7.175781 3.78125 -6.71875 C 3.488281 -6.269531 3.34375 -5.582031 3.34375 -4.65625 Z M 9.765625 -4.65625 C 9.765625 -3.144531 9.363281 -1.960938 8.5625 -1.109375 C 7.769531 -0.253906 6.660156 0.171875 5.234375 0.171875 C 4.347656 0.171875 3.5625 -0.0195312 2.875 -0.40625 C 2.195312 -0.800781 1.675781 -1.363281 1.3125 -2.09375 C 0.945312 -2.832031 0.765625 -3.6875 0.765625 -4.65625 C 0.765625 -6.175781 1.160156 -7.351562 1.953125 -8.1875 C 2.742188 -9.03125 3.851562 -9.453125 5.28125 -9.453125 C 6.175781 -9.453125 6.960938 -9.257812 7.640625 -8.875 C 8.328125 -8.488281 8.851562 -7.929688 9.21875 -7.203125 C 9.582031 -6.484375 9.765625 -5.632812 9.765625 -4.65625 Z M 9.765625 -4.65625 "/></g></g></g><g fill="#ffde59" fill-opacity="1"><g transform="translate(151.970438, 227.545269)"><g><path d="M 3.34375 -4.65625 C 3.34375 -3.738281 3.492188 -3.046875 3.796875 -2.578125 C 4.097656 -2.109375 4.585938 -1.875 5.265625 -1.875 C 5.941406 -1.875 6.425781 -2.101562 6.71875 -2.5625 C 7.019531 -3.03125 7.171875 -3.726562 7.171875 -4.65625 C 7.171875 -5.570312 7.019531 -6.257812 6.71875 -6.71875 C 6.425781 -7.175781 5.9375 -7.40625 5.25 -7.40625 C 4.570312 -7.40625 4.082031 -7.175781 3.78125 -6.71875 C 3.488281 -6.269531 3.34375 -5.582031 3.34375 -4.65625 Z M 9.765625 -4.65625 C 9.765625 -3.144531 9.363281 -1.960938 8.5625 -1.109375 C 7.769531 -0.253906 6.660156 0.171875 5.234375 0.171875 C 4.347656 0.171875 3.5625 -0.0195312 2.875 -0.40625 C 2.195312 -0.800781 1.675781 -1.363281 1.3125 -2.09375 C 0.945312 -2.832031 0.765625 -3.6875 0.765625 -4.65625 C 0.765625 -6.175781 1.160156 -7.351562 1.953125 -8.1875 C 2.742188 -9.03125 3.851562 -9.453125 5.28125 -9.453125 C 6.175781 -9.453125 6.960938 -9.257812 7.640625 -8.875 C 8.328125 -8.488281 8.851562 -7.929688 9.21875 -7.203125 C 9.582031 -6.484375 9.765625 -5.632812 9.765625 -4.65625 Z M 9.765625 -4.65625 "/></g></g></g><g fill="#ffde59" fill-opacity="1"><g transform="translate(162.490991, 227.545269)"><g><path d="M 4.265625 0.171875 C 3.171875 0.171875 2.3125 -0.25 1.6875 -1.09375 C 1.070312 -1.945312 0.765625 -3.125 0.765625 -4.625 C 0.765625 -6.144531 1.082031 -7.328125 1.71875 -8.171875 C 2.351562 -9.023438 3.222656 -9.453125 4.328125 -9.453125 C 5.492188 -9.453125 6.382812 -9 7 -8.09375 L 7.09375 -8.09375 C 6.957031 -8.78125 6.890625 -9.394531 6.890625 -9.9375 L 6.890625 -12.921875 L 9.4375 -12.921875 L 9.4375 0 L 7.5 0 L 7 -1.203125 L 6.890625 -1.203125 C 6.316406 -0.285156 5.441406 0.171875 4.265625 0.171875 Z M 5.15625 -1.84375 C 5.800781 -1.84375 6.273438 -2.03125 6.578125 -2.40625 C 6.878906 -2.789062 7.046875 -3.429688 7.078125 -4.328125 L 7.078125 -4.609375 C 7.078125 -5.597656 6.921875 -6.304688 6.609375 -6.734375 C 6.304688 -7.171875 5.804688 -7.390625 5.109375 -7.390625 C 4.546875 -7.390625 4.109375 -7.148438 3.796875 -6.671875 C 3.484375 -6.191406 3.328125 -5.5 3.328125 -4.59375 C 3.328125 -3.675781 3.484375 -2.988281 3.796875 -2.53125 C 4.117188 -2.070312 4.570312 -1.84375 5.15625 -1.84375 Z M 5.15625 -1.84375 "/></g></g></g><g fill="#ffde59" fill-opacity="1"><g transform="translate(173.243859, 227.545269)"><g><path d="M 13.34375 0 L 10.421875 0 L 8.78125 -6.375 C 8.71875 -6.601562 8.613281 -7.070312 8.46875 -7.78125 C 8.320312 -8.488281 8.234375 -8.96875 8.203125 -9.21875 C 8.171875 -8.914062 8.085938 -8.429688 7.953125 -7.765625 C 7.828125 -7.109375 7.726562 -6.640625 7.65625 -6.359375 L 6.015625 0 L 3.09375 0 L 0 -12.140625 L 2.53125 -12.140625 L 4.078125 -5.515625 C 4.347656 -4.285156 4.546875 -3.222656 4.671875 -2.328125 C 4.703125 -2.648438 4.773438 -3.140625 4.890625 -3.796875 C 5.015625 -4.460938 5.128906 -4.976562 5.234375 -5.34375 L 7 -12.140625 L 9.4375 -12.140625 L 11.203125 -5.34375 C 11.285156 -5.03125 11.382812 -4.5625 11.5 -3.9375 C 11.613281 -3.3125 11.703125 -2.773438 11.765625 -2.328125 C 11.816406 -2.765625 11.898438 -3.304688 12.015625 -3.953125 C 12.140625 -4.597656 12.253906 -5.117188 12.359375 -5.515625 L 13.90625 -12.140625 L 16.4375 -12.140625 Z M 13.34375 0 "/></g></g></g><g fill="#ffde59" fill-opacity="1"><g transform="translate(189.671852, 227.545269)"><g><path d="M 1.21875 -11.671875 C 1.21875 -12.503906 1.675781 -12.921875 2.59375 -12.921875 C 3.507812 -12.921875 3.96875 -12.503906 3.96875 -11.671875 C 3.96875 -11.285156 3.851562 -10.984375 3.625 -10.765625 C 3.394531 -10.546875 3.050781 -10.4375 2.59375 -10.4375 C 1.675781 -10.4375 1.21875 -10.847656 1.21875 -11.671875 Z M 3.859375 0 L 1.328125 0 L 1.328125 -9.28125 L 3.859375 -9.28125 Z M 3.859375 0 "/></g></g></g><g fill="#ffde59" fill-opacity="1"><g transform="translate(194.857455, 227.545269)"><g><path d="M 3.859375 0 L 1.328125 0 L 1.328125 -12.921875 L 3.859375 -12.921875 Z M 3.859375 0 "/></g></g></g><g fill="#ffde59" fill-opacity="1"><g transform="translate(200.043059, 227.545269)"><g><path d="M 3.859375 0 L 1.328125 0 L 1.328125 -12.921875 L 3.859375 -12.921875 Z M 3.859375 0 "/></g></g></g><g fill="#ffde59" fill-opacity="1"><g transform="translate(205.228663, 227.545269)"><g/></g></g><g fill="#ffde59" fill-opacity="1"><g transform="translate(209.642649, 227.545269)"><g><path d="M 11.46875 0 L 8.90625 0 L 8.90625 -5.234375 L 4.09375 -5.234375 L 4.09375 0 L 1.53125 0 L 1.53125 -12.140625 L 4.09375 -12.140625 L 4.09375 -7.375 L 8.90625 -7.375 L 8.90625 -12.140625 L 11.46875 -12.140625 Z M 11.46875 0 "/></g></g></g><g fill="#ffde59" fill-opacity="1"><g transform="translate(222.643995, 227.545269)"><g><path d="M 5.171875 -7.65625 C 4.628906 -7.65625 4.207031 -7.484375 3.90625 -7.140625 C 3.601562 -6.796875 3.429688 -6.3125 3.390625 -5.6875 L 6.9375 -5.6875 C 6.925781 -6.3125 6.765625 -6.796875 6.453125 -7.140625 C 6.140625 -7.484375 5.710938 -7.65625 5.171875 -7.65625 Z M 5.53125 0.171875 C 4.03125 0.171875 2.859375 -0.238281 2.015625 -1.0625 C 1.179688 -1.894531 0.765625 -3.066406 0.765625 -4.578125 C 0.765625 -6.128906 1.148438 -7.328125 1.921875 -8.171875 C 2.703125 -9.023438 3.78125 -9.453125 5.15625 -9.453125 C 6.46875 -9.453125 7.488281 -9.078125 8.21875 -8.328125 C 8.945312 -7.585938 9.3125 -6.554688 9.3125 -5.234375 L 9.3125 -4.015625 L 3.328125 -4.015625 C 3.359375 -3.296875 3.570312 -2.734375 3.96875 -2.328125 C 4.363281 -1.921875 4.921875 -1.71875 5.640625 -1.71875 C 6.203125 -1.71875 6.734375 -1.773438 7.234375 -1.890625 C 7.734375 -2.003906 8.253906 -2.191406 8.796875 -2.453125 L 8.796875 -0.484375 C 8.347656 -0.265625 7.867188 -0.101562 7.359375 0 C 6.859375 0.113281 6.25 0.171875 5.53125 0.171875 Z M 5.53125 0.171875 "/></g></g></g><g fill="#ffde59" fill-opacity="1"><g transform="translate(232.683323, 227.545269)"><g><path d="M 7.21875 0 L 6.734375 -1.265625 L 6.671875 -1.265625 C 6.242188 -0.722656 5.800781 -0.347656 5.34375 -0.140625 C 4.894531 0.0664062 4.3125 0.171875 3.59375 0.171875 C 2.695312 0.171875 1.992188 -0.0820312 1.484375 -0.59375 C 0.972656 -1.101562 0.71875 -1.828125 0.71875 -2.765625 C 0.71875 -3.753906 1.0625 -4.484375 1.75 -4.953125 C 2.4375 -5.421875 3.472656 -5.679688 4.859375 -5.734375 L 6.46875 -5.78125 L 6.46875 -6.1875 C 6.46875 -7.125 5.988281 -7.59375 5.03125 -7.59375 C 4.289062 -7.59375 3.421875 -7.367188 2.421875 -6.921875 L 1.578125 -8.640625 C 2.640625 -9.191406 3.820312 -9.46875 5.125 -9.46875 C 6.375 -9.46875 7.328125 -9.195312 7.984375 -8.65625 C 8.648438 -8.113281 8.984375 -7.289062 8.984375 -6.1875 L 8.984375 0 Z M 6.46875 -4.296875 L 5.5 -4.265625 C 4.757812 -4.242188 4.207031 -4.109375 3.84375 -3.859375 C 3.488281 -3.617188 3.3125 -3.25 3.3125 -2.75 C 3.3125 -2.039062 3.722656 -1.6875 4.546875 -1.6875 C 5.128906 -1.6875 5.59375 -1.851562 5.9375 -2.1875 C 6.289062 -2.53125 6.46875 -2.976562 6.46875 -3.53125 Z M 6.46875 -4.296875 "/></g></g></g><g fill="#ffde59" fill-opacity="1"><g transform="translate(242.94667, 227.545269)"><g><path d="M 3.859375 0 L 1.328125 0 L 1.328125 -12.921875 L 3.859375 -12.921875 Z M 3.859375 0 "/></g></g></g><g fill="#ffde59" fill-opacity="1"><g transform="translate(248.132274, 227.545269)"><g><path d="M 5.234375 -1.84375 C 5.679688 -1.84375 6.210938 -1.941406 6.828125 -2.140625 L 6.828125 -0.25 C 6.203125 0.03125 5.425781 0.171875 4.5 0.171875 C 3.488281 0.171875 2.753906 -0.0820312 2.296875 -0.59375 C 1.835938 -1.113281 1.609375 -1.882812 1.609375 -2.90625 L 1.609375 -7.375 L 0.390625 -7.375 L 0.390625 -8.453125 L 1.78125 -9.296875 L 2.515625 -11.25 L 4.140625 -11.25 L 4.140625 -9.28125 L 6.734375 -9.28125 L 6.734375 -7.375 L 4.140625 -7.375 L 4.140625 -2.90625 C 4.140625 -2.539062 4.238281 -2.269531 4.4375 -2.09375 C 4.632812 -1.925781 4.898438 -1.84375 5.234375 -1.84375 Z M 5.234375 -1.84375 "/></g></g></g><g fill="#ffde59" fill-opacity="1"><g transform="translate(255.508277, 227.545269)"><g><path d="M 9.890625 0 L 7.359375 0 L 7.359375 -5.421875 C 7.359375 -6.753906 6.863281 -7.421875 5.875 -7.421875 C 5.164062 -7.421875 4.648438 -7.179688 4.328125 -6.703125 C 4.015625 -6.222656 3.859375 -5.441406 3.859375 -4.359375 L 3.859375 0 L 1.328125 0 L 1.328125 -12.921875 L 3.859375 -12.921875 L 3.859375 -10.28125 C 3.859375 -10.082031 3.835938 -9.601562 3.796875 -8.84375 L 3.75 -8.09375 L 3.875 -8.09375 C 4.4375 -9 5.332031 -9.453125 6.5625 -9.453125 C 7.65625 -9.453125 8.484375 -9.15625 9.046875 -8.5625 C 9.609375 -7.976562 9.890625 -7.140625 9.890625 -6.046875 Z M 9.890625 0 "/></g></g></g><g fill="#ffde59" fill-opacity="1"><g transform="translate(266.675993, 227.545269)"><g/></g></g><g fill="#ffde59" fill-opacity="1"><g transform="translate(271.089979, 227.545269)"><g><path d="M 1.53125 0 L 1.53125 -12.140625 L 4.09375 -12.140625 L 4.09375 0 Z M 1.53125 0 "/></g></g></g><g fill="#ffde59" fill-opacity="1"><g transform="translate(276.715322, 227.545269)"><g><path d="M 9.890625 0 L 7.359375 0 L 7.359375 -5.421875 C 7.359375 -6.085938 7.238281 -6.585938 7 -6.921875 C 6.769531 -7.253906 6.394531 -7.421875 5.875 -7.421875 C 5.164062 -7.421875 4.648438 -7.1875 4.328125 -6.71875 C 4.015625 -6.25 3.859375 -5.460938 3.859375 -4.359375 L 3.859375 0 L 1.328125 0 L 1.328125 -9.28125 L 3.265625 -9.28125 L 3.609375 -8.09375 L 3.75 -8.09375 C 4.03125 -8.539062 4.414062 -8.878906 4.90625 -9.109375 C 5.40625 -9.335938 5.96875 -9.453125 6.59375 -9.453125 C 7.675781 -9.453125 8.492188 -9.160156 9.046875 -8.578125 C 9.609375 -7.992188 9.890625 -7.148438 9.890625 -6.046875 Z M 9.890625 0 "/></g></g></g><g fill="#ffde59" fill-opacity="1"><g transform="translate(287.883038, 227.545269)"><g><path d="M 7.796875 -2.75 C 7.796875 -1.800781 7.460938 -1.078125 6.796875 -0.578125 C 6.140625 -0.078125 5.15625 0.171875 3.84375 0.171875 C 3.164062 0.171875 2.585938 0.125 2.109375 0.03125 C 1.640625 -0.0625 1.195312 -0.195312 0.78125 -0.375 L 0.78125 -2.46875 C 1.25 -2.25 1.773438 -2.0625 2.359375 -1.90625 C 2.953125 -1.757812 3.472656 -1.6875 3.921875 -1.6875 C 4.835938 -1.6875 5.296875 -1.953125 5.296875 -2.484375 C 5.296875 -2.679688 5.234375 -2.84375 5.109375 -2.96875 C 4.992188 -3.09375 4.785156 -3.234375 4.484375 -3.390625 C 4.191406 -3.546875 3.796875 -3.726562 3.296875 -3.9375 C 2.578125 -4.238281 2.050781 -4.515625 1.71875 -4.765625 C 1.382812 -5.023438 1.140625 -5.316406 0.984375 -5.640625 C 0.835938 -5.972656 0.765625 -6.378906 0.765625 -6.859375 C 0.765625 -7.691406 1.082031 -8.332031 1.71875 -8.78125 C 2.363281 -9.226562 3.269531 -9.453125 4.4375 -9.453125 C 5.5625 -9.453125 6.648438 -9.207031 7.703125 -8.71875 L 6.9375 -6.890625 C 6.476562 -7.097656 6.046875 -7.265625 5.640625 -7.390625 C 5.234375 -7.515625 4.820312 -7.578125 4.40625 -7.578125 C 3.65625 -7.578125 3.28125 -7.375 3.28125 -6.96875 C 3.28125 -6.738281 3.398438 -6.539062 3.640625 -6.375 C 3.878906 -6.21875 4.40625 -5.972656 5.21875 -5.640625 C 5.945312 -5.347656 6.476562 -5.070312 6.8125 -4.8125 C 7.15625 -4.5625 7.40625 -4.269531 7.5625 -3.9375 C 7.71875 -3.601562 7.796875 -3.207031 7.796875 -2.75 Z M 7.796875 -2.75 "/></g></g></g><g fill="#ffde59" fill-opacity="1"><g transform="translate(296.32935, 227.545269)"><g><path d="M 7.90625 0 L 7.5625 -1.1875 L 7.421875 -1.1875 C 7.148438 -0.757812 6.765625 -0.425781 6.265625 -0.1875 C 5.773438 0.0507812 5.210938 0.171875 4.578125 0.171875 C 3.484375 0.171875 2.660156 -0.117188 2.109375 -0.703125 C 1.554688 -1.285156 1.28125 -2.128906 1.28125 -3.234375 L 1.28125 -9.28125 L 3.8125 -9.28125 L 3.8125 -3.859375 C 3.8125 -3.191406 3.929688 -2.6875 4.171875 -2.34375 C 4.410156 -2.007812 4.785156 -1.84375 5.296875 -1.84375 C 6.003906 -1.84375 6.515625 -2.078125 6.828125 -2.546875 C 7.148438 -3.023438 7.3125 -3.816406 7.3125 -4.921875 L 7.3125 -9.28125 L 9.84375 -9.28125 L 9.84375 0 Z M 7.90625 0 "/></g></g></g><g fill="#ffde59" fill-opacity="1"><g transform="translate(307.497066, 227.545269)"><g><path d="M 6.515625 -9.453125 C 6.847656 -9.453125 7.128906 -9.425781 7.359375 -9.375 L 7.171875 -7 C 6.960938 -7.0625 6.710938 -7.09375 6.421875 -7.09375 C 5.617188 -7.09375 4.988281 -6.882812 4.53125 -6.46875 C 4.082031 -6.050781 3.859375 -5.46875 3.859375 -4.71875 L 3.859375 0 L 1.328125 0 L 1.328125 -9.28125 L 3.25 -9.28125 L 3.625 -7.71875 L 3.75 -7.71875 C 4.03125 -8.238281 4.414062 -8.65625 4.90625 -8.96875 C 5.394531 -9.289062 5.929688 -9.453125 6.515625 -9.453125 Z M 6.515625 -9.453125 "/></g></g></g><g fill="#ffde59" fill-opacity="1"><g transform="translate(315.213244, 227.545269)"><g><path d="M 7.21875 0 L 6.734375 -1.265625 L 6.671875 -1.265625 C 6.242188 -0.722656 5.800781 -0.347656 5.34375 -0.140625 C 4.894531 0.0664062 4.3125 0.171875 3.59375 0.171875 C 2.695312 0.171875 1.992188 -0.0820312 1.484375 -0.59375 C 0.972656 -1.101562 0.71875 -1.828125 0.71875 -2.765625 C 0.71875 -3.753906 1.0625 -4.484375 1.75 -4.953125 C 2.4375 -5.421875 3.472656 -5.679688 4.859375 -5.734375 L 6.46875 -5.78125 L 6.46875 -6.1875 C 6.46875 -7.125 5.988281 -7.59375 5.03125 -7.59375 C 4.289062 -7.59375 3.421875 -7.367188 2.421875 -6.921875 L 1.578125 -8.640625 C 2.640625 -9.191406 3.820312 -9.46875 5.125 -9.46875 C 6.375 -9.46875 7.328125 -9.195312 7.984375 -8.65625 C 8.648438 -8.113281 8.984375 -7.289062 8.984375 -6.1875 L 8.984375 0 Z M 6.46875 -4.296875 L 5.5 -4.265625 C 4.757812 -4.242188 4.207031 -4.109375 3.84375 -3.859375 C 3.488281 -3.617188 3.3125 -3.25 3.3125 -2.75 C 3.3125 -2.039062 3.722656 -1.6875 4.546875 -1.6875 C 5.128906 -1.6875 5.59375 -1.851562 5.9375 -2.1875 C 6.289062 -2.53125 6.46875 -2.976562 6.46875 -3.53125 Z M 6.46875 -4.296875 "/></g></g></g><g fill="#ffde59" fill-opacity="1"><g transform="translate(325.476603, 227.545269)"><g><path d="M 9.890625 0 L 7.359375 0 L 7.359375 -5.421875 C 7.359375 -6.085938 7.238281 -6.585938 7 -6.921875 C 6.769531 -7.253906 6.394531 -7.421875 5.875 -7.421875 C 5.164062 -7.421875 4.648438 -7.1875 4.328125 -6.71875 C 4.015625 -6.25 3.859375 -5.460938 3.859375 -4.359375 L 3.859375 0 L 1.328125 0 L 1.328125 -9.28125 L 3.265625 -9.28125 L 3.609375 -8.09375 L 3.75 -8.09375 C 4.03125 -8.539062 4.414062 -8.878906 4.90625 -9.109375 C 5.40625 -9.335938 5.96875 -9.453125 6.59375 -9.453125 C 7.675781 -9.453125 8.492188 -9.160156 9.046875 -8.578125 C 9.609375 -7.992188 9.890625 -7.148438 9.890625 -6.046875 Z M 9.890625 0 "/></g></g></g><g fill="#ffde59" fill-opacity="1"><g transform="translate(336.644319, 227.545269)"><g><path d="M 5.09375 0.171875 C 2.207031 0.171875 0.765625 -1.414062 0.765625 -4.59375 C 0.765625 -6.164062 1.15625 -7.367188 1.9375 -8.203125 C 2.726562 -9.035156 3.859375 -9.453125 5.328125 -9.453125 C 6.398438 -9.453125 7.359375 -9.242188 8.203125 -8.828125 L 7.46875 -6.859375 C 7.0625 -7.023438 6.6875 -7.15625 6.34375 -7.25 C 6 -7.351562 5.660156 -7.40625 5.328125 -7.40625 C 4.003906 -7.40625 3.34375 -6.472656 3.34375 -4.609375 C 3.34375 -2.796875 4.003906 -1.890625 5.328125 -1.890625 C 5.804688 -1.890625 6.253906 -1.953125 6.671875 -2.078125 C 7.085938 -2.210938 7.503906 -2.414062 7.921875 -2.6875 L 7.921875 -0.515625 C 7.515625 -0.265625 7.097656 -0.0859375 6.671875 0.015625 C 6.253906 0.117188 5.726562 0.171875 5.09375 0.171875 Z M 5.09375 0.171875 "/></g></g></g><g fill="#ffde59" fill-opacity="1"><g transform="translate(345.381036, 227.545269)"><g><path d="M 5.171875 -7.65625 C 4.628906 -7.65625 4.207031 -7.484375 3.90625 -7.140625 C 3.601562 -6.796875 3.429688 -6.3125 3.390625 -5.6875 L 6.9375 -5.6875 C 6.925781 -6.3125 6.765625 -6.796875 6.453125 -7.140625 C 6.140625 -7.484375 5.710938 -7.65625 5.171875 -7.65625 Z M 5.53125 0.171875 C 4.03125 0.171875 2.859375 -0.238281 2.015625 -1.0625 C 1.179688 -1.894531 0.765625 -3.066406 0.765625 -4.578125 C 0.765625 -6.128906 1.148438 -7.328125 1.921875 -8.171875 C 2.703125 -9.023438 3.78125 -9.453125 5.15625 -9.453125 C 6.46875 -9.453125 7.488281 -9.078125 8.21875 -8.328125 C 8.945312 -7.585938 9.3125 -6.554688 9.3125 -5.234375 L 9.3125 -4.015625 L 3.328125 -4.015625 C 3.359375 -3.296875 3.570312 -2.734375 3.96875 -2.328125 C 4.363281 -1.921875 4.921875 -1.71875 5.640625 -1.71875 C 6.203125 -1.71875 6.734375 -1.773438 7.234375 -1.890625 C 7.734375 -2.003906 8.253906 -2.191406 8.796875 -2.453125 L 8.796875 -0.484375 C 8.347656 -0.265625 7.867188 -0.101562 7.359375 0 C 6.859375 0.113281 6.25 0.171875 5.53125 0.171875 Z M 5.53125 0.171875 "/></g></g></g></svg>